<?xml version="1.0" standalone="no"?>
<!DOCTYPE svg PUBLIC "-//W3C//DTD SVG 20010904//EN"
 "http://www.w3.org/TR/2001/REC-SVG-20010904/DTD/svg10.dtd">
<svg version="1.0" xmlns="http://www.w3.org/2000/svg"
 width="500.000000pt" height="375.000000pt" viewBox="0 0 500.000000 375.000000"
 preserveAspectRatio="xMidYMid meet">

<g transform="translate(0.000000,375.000000) scale(0.100000,-0.100000)"
fill="#000000" stroke="none">
<path d="M1916 3414 c-8 -21 -7 -120 3 -169 5 -28 8 -7 7 72 -1 62 -2 113 -2
113 -1 0 -5 -7 -8 -16z"/>
<path d="M3854 3371 c-11 -18 -36 -55 -56 -81 -50 -65 -162 -240 -156 -245 2
-3 50 65 107 150 56 85 104 155 106 155 2 0 -3 -19 -11 -42 -19 -55 -22 -122
-5 -142 20 -23 63 -20 106 10 23 16 35 20 32 11 -14 -38 -19 -157 -7 -172 16
-19 63 -19 129 1 29 8 55 13 57 11 3 -2 -31 -25 -73 -50 -102 -59 -255 -168
-261 -185 -2 -8 17 2 42 22 43 32 141 98 299 199 32 21 55 42 52 47 -4 7 -14
6 -26 -1 -27 -14 -103 -36 -155 -44 -60 -9 -68 6 -55 94 6 38 15 81 21 95 l9
25 -47 -28 c-62 -38 -90 -46 -107 -31 -21 17 -19 66 6 145 23 77 20 105 -7 56z
m331 -331 c-3 -5 -12 -10 -18 -10 -7 0 -6 4 3 10 19 12 23 12 15 0z"/>
<path d="M1815 3328 c-30 -16 -75 -60 -75 -73 0 -6 20 8 45 32 74 71 83 55 35
-64 -38 -95 -39 -113 -2 -112 23 2 24 2 5 6 -29 6 -29 8 7 98 44 110 39 143
-15 113z"/>
<path d="M2718 3274 c-13 -7 -58 -14 -101 -17 -48 -3 -87 -11 -102 -21 -24
-16 -27 -15 -64 6 -36 20 -42 21 -66 8 -15 -8 -33 -27 -41 -42 -8 -15 -34 -50
-58 -77 -54 -60 -98 -138 -124 -216 -11 -33 -39 -107 -62 -165 -22 -58 -55
-157 -72 -220 -29 -108 -31 -128 -35 -332 -4 -168 -1 -243 12 -330 l16 -113
-21 -17 c-12 -10 -32 -18 -45 -18 -36 0 -36 -24 -2 -78 36 -57 203 -216 238
-227 13 -5 59 -27 101 -50 42 -24 79 -41 82 -38 5 6 -30 58 -64 95 -14 14 -36
41 -50 60 l-25 33 35 -28 c19 -15 49 -38 65 -51 17 -13 52 -31 79 -39 43 -15
51 -15 69 -2 41 28 63 20 76 -29 14 -57 14 -89 -1 -104 -8 -8 -8 -15 0 -25 21
-25 1 -56 -62 -95 -34 -21 -74 -42 -88 -45 -14 -4 -42 -25 -61 -46 -20 -22
-69 -67 -109 -100 -85 -69 -342 -328 -383 -386 -16 -22 -48 -60 -71 -85 -63
-68 -274 -430 -274 -471 0 -5 452 -9 1131 -9 953 0 1134 2 1143 14 6 7 61 25
123 39 106 25 198 61 235 94 14 13 17 12 27 -4 6 -10 11 -12 11 -5 0 7 -9 20
-20 29 -28 24 -25 33 10 33 17 0 30 4 30 9 0 14 -39 58 -40 44 0 -6 5 -15 10
-18 20 -12 9 -25 -20 -25 -29 0 -74 -32 -63 -44 11 -11 34 -6 27 5 -4 7 -2 10
5 8 61 -21 -86 -85 -302 -133 l-28 -7 7 88 c3 48 10 92 15 97 5 6 9 19 9 30 0
18 -2 18 -10 6 -8 -11 -10 -5 -8 25 3 39 4 39 73 66 86 33 142 65 156 90 24
45 -48 34 -164 -24 l-65 -33 -6 55 c-5 39 -3 57 6 63 10 6 9 8 -4 8 -11 0 -20
16 -28 53 -7 28 -30 93 -52 142 -21 50 -57 135 -80 190 -23 55 -67 142 -100
194 -32 51 -58 95 -58 98 0 13 -54 111 -72 130 -11 12 -21 30 -22 40 -1 10 -9
43 -18 73 -9 30 -15 67 -14 81 1 29 31 63 46 54 5 -3 10 0 10 8 0 26 51 50
111 53 79 4 221 48 299 94 65 38 185 160 178 180 -2 6 -19 -1 -38 -16 -62 -47
-230 -116 -230 -94 0 5 4 11 8 14 17 10 101 183 132 271 29 84 61 225 61 270
0 11 -11 29 -25 40 -14 11 -38 49 -54 85 -16 36 -52 96 -79 133 -47 63 -50 71
-45 113 5 43 3 47 -42 88 -25 24 -56 65 -67 92 -12 27 -42 79 -68 116 -46 67
-46 67 -193 138 -84 40 -170 75 -200 80 -29 5 -82 16 -117 25 -45 12 -80 15
-124 10 -57 -7 -60 -6 -48 9 13 15 11 16 -14 6 -16 -6 -31 -7 -34 -2 -9 13
-77 10 -103 -4z m-83 -264 c-3 -5 0 -10 8 -10 18 0 33 -53 17 -58 -7 -3 -6 -8
4 -16 17 -12 39 -158 34 -222 -3 -37 -5 -39 -43 -45 -22 -4 -67 -17 -99 -30
-33 -12 -69 -22 -80 -23 -16 -1 -21 -8 -19 -29 2 -33 46 -99 51 -77 2 9 40 27
98 45 l94 31 0 -46 0 -46 -49 -13 c-49 -12 -99 -40 -73 -41 7 0 21 4 30 9 9 4
34 11 55 15 l37 7 0 -42 0 -42 -35 6 c-21 3 -33 2 -30 -4 4 -5 17 -9 30 -9 27
0 34 -15 37 -78 l1 -47 6 55 6 55 42 5 c24 3 52 13 62 22 20 17 20 16 25 -15
8 -50 19 -188 18 -229 0 -34 -21 -110 -59 -214 -14 -39 -19 -42 -76 -59 -142
-40 -148 -51 -92 -171 27 -59 32 -79 23 -86 -7 -4 -63 -26 -124 -49 l-112 -41
-83 43 -84 44 -6 70 c-4 39 -16 108 -27 155 -27 110 -52 256 -52 299 0 36 49
142 83 179 64 69 37 -33 -40 -150 -29 -42 -25 -64 12 -78 59 -22 77 -19 27 5
l-54 25 22 33 c12 17 37 64 56 102 31 62 34 76 29 122 -4 31 -2 54 4 58 7 4 9
-5 5 -27 l-5 -33 30 35 c17 19 31 43 31 54 0 10 -25 59 -55 109 l-55 89 46
126 c25 70 51 142 57 160 13 35 28 40 47 17 14 -17 56 -20 65 -5 4 6 14 10 23
9 20 -3 131 32 130 40 -1 12 2 21 8 21 3 0 2 -4 -1 -10z m69 -105 c22 -121 31
-235 17 -235 -7 0 -11 22 -11 58 0 52 -17 169 -35 247 -6 22 -5 27 3 20 7 -6
18 -46 26 -90z m80 -209 c7 -36 6 -37 -16 -31 -13 4 -24 8 -24 9 -1 0 -4 46
-6 101 l-5 100 22 -70 c12 -39 25 -88 29 -109z m35 -161 c7 -31 10 -59 7 -62
-3 -3 -29 0 -57 8 l-52 14 1 48 c1 62 2 66 12 42 8 -20 9 -20 9 1 1 30 10 35
41 19 21 -11 29 -26 39 -70z m-539 25 c10 0 70 -84 70 -98 0 -4 -15 -8 -32 -8
-18 0 -43 -3 -55 -7 -19 -7 -21 -4 -25 41 -4 66 0 85 19 78 8 -3 19 -6 23 -6z
m468 -126 c-9 -18 -9 -27 0 -36 19 -19 14 -30 -10 -26 -30 4 -39 65 -12 85 24
18 35 7 22 -23z m32 5 c-7 -11 -14 -18 -17 -15 -3 3 0 12 7 21 18 21 23 19 10
-6z m-494 -46 c-1 -38 -12 -56 -28 -47 -9 6 -11 46 -2 68 12 31 31 17 30 -21z
m534 17 c0 -5 -12 -10 -27 -9 l-28 1 25 8 c14 4 26 8 28 9 1 1 2 -3 2 -9z
m225 -833 c-4 -18 -12 -41 -18 -52 -6 -11 -10 -24 -9 -28 6 -20 -19 7 -53 58
-20 30 -33 60 -30 65 9 14 72 12 78 -2 3 -9 7 -7 12 6 7 16 9 17 17 2 5 -9 6
-31 3 -49z m245 3 c0 -21 -242 -102 -258 -85 -3 3 2 5 10 5 8 0 32 11 52 25
21 14 42 22 48 19 6 -4 8 -2 4 4 -3 6 -2 13 4 17 5 3 10 1 10 -5 0 -6 12 -5
30 5 17 9 39 13 49 10 12 -3 21 0 25 10 6 16 26 12 26 -5z m-573 -26 c19 -20
49 -44 66 -54 l30 -19 -34 -5 c-19 -3 -65 -8 -104 -11 l-70 -6 -22 45 -21 45
41 15 c37 13 65 23 75 25 1 1 19 -15 39 -35z m38 -6 c38 -40 39 -40 7 -19 -26
19 -61 61 -49 61 1 0 21 -19 42 -42z m535 -38 c0 -5 -8 -10 -17 -10 -15 0 -16
2 -3 10 19 12 20 12 20 0z m-96 -31 c-10 -4 -35 -6 -54 -3 -27 3 -31 2 -15 -5
14 -7 15 -10 5 -10 -8 -1 -33 -3 -55 -6 -32 -4 -35 -3 -15 4 22 8 22 9 5 11
-14 2 -12 4 10 10 40 10 145 9 119 -1z m-359 -59 c-55 -20 -209 -27 -220 -10
-15 24 12 30 138 29 l132 -1 -50 -18z m-245 -10 c0 -5 -7 -10 -15 -10 -8 0
-15 5 -15 10 0 6 7 10 15 10 8 0 15 -4 15 -10z m-3 -82 c-3 -8 -6 -5 -6 6 -1
11 2 17 5 13 3 -3 4 -12 1 -19z m1433 -878 c0 -21 -204 -119 -218 -105 -12 12
37 47 113 80 84 36 105 41 105 25z"/>
<path d="M2568 2474 c-16 -8 -28 -19 -28 -25 0 -11 21 -1 55 25 25 20 8 20
-27 0z"/>
<path d="M2692 2200 c0 -14 2 -19 5 -12 2 6 2 18 0 25 -3 6 -5 1 -5 -13z"/>
<path d="M2429 2153 c-13 -15 -12 -15 7 -5 36 19 61 -27 32 -57 -11 -10 -10
-11 4 -6 25 10 30 35 13 61 -18 28 -37 30 -56 7z"/>
<path d="M2360 2091 c0 -6 17 -7 38 -4 51 8 53 13 4 13 -23 0 -42 -4 -42 -9z"/>
<path d="M2745 2000 c3 -5 8 -10 11 -10 2 0 4 5 4 10 0 6 -5 10 -11 10 -5 0
-7 -4 -4 -10z"/>
<path d="M2670 1969 c-19 -5 -122 -9 -227 -10 -106 -1 -190 -5 -188 -9 13 -21
465 5 465 25 0 6 -5 5 -50 -6z"/>
<path d="M2291 1869 c8 -5 55 -8 104 -8 111 1 101 6 -24 12 -54 3 -88 1 -80
-4z"/>
<path d="M1495 3116 c2 -55 9 -104 15 -110 8 -8 10 -7 5 4 -3 9 -10 58 -15
110 l-9 95 4 -99z"/>
<path d="M1530 3114 c0 -8 5 -12 10 -9 6 4 8 11 5 16 -9 14 -15 11 -15 -7z"/>
<path d="M1574 3107 c3 -10 6 -32 6 -48 0 -33 16 -39 25 -9 9 27 25 25 26 -2
0 -13 3 -17 6 -10 3 7 2 25 -2 40 l-7 27 -19 -24 c-17 -20 -19 -21 -19 -5 0
11 -5 26 -11 34 -9 12 -10 12 -5 -3z"/>
<path d="M1674 3106 c-11 -29 1 -51 28 -54 22 -3 29 -12 42 -49 14 -42 14 -44
-2 -38 -61 26 -83 -18 -37 -74 22 -25 30 -29 46 -21 24 13 25 77 3 135 -9 22
-18 52 -21 68 -7 36 -23 45 -23 13 0 -14 -5 -26 -10 -26 -17 0 -23 29 -10 45
9 11 9 15 1 15 -6 0 -14 -6 -17 -14z m67 -157 c23 -23 22 -62 -3 -67 -19 -4
-53 52 -44 74 8 20 23 17 47 -7z"/>
<path d="M1904 3109 c-3 -6 -2 -15 2 -19 12 -12 38 5 30 19 -9 14 -23 14 -32
0z"/>
<path d="M1835 3080 c-10 -17 12 -37 25 -24 8 8 6 15 -4 23 -10 9 -16 9 -21 1z"/>
<path d="M1536 3053 c10 -40 14 -41 14 -5 0 18 -5 32 -10 32 -6 0 -8 -11 -4
-27z"/>
<path d="M1241 3036 c-42 -43 -34 -60 26 -53 l45 5 -39 -40 c-21 -22 -29 -36
-18 -30 11 6 31 22 44 36 29 31 38 32 44 9 3 -15 6 -14 15 7 6 14 11 18 12 10
0 -8 9 1 19 20 l19 35 5 -30 4 -30 2 33 c1 34 -12 42 -27 17 -4 -9 -21 -17
-38 -19 -16 -2 -46 -7 -66 -11 -21 -4 -46 -4 -55 0 -15 6 -12 12 22 41 22 18
35 34 29 34 -5 0 -25 -15 -43 -34z"/>
<path d="M1448 3025 c2 -14 6 -25 8 -25 2 0 4 11 4 25 0 14 -4 25 -9 25 -4 0
-6 -11 -3 -25z"/>
<path d="M3676 2927 c35 -57 79 -117 96 -133 l32 -29 -25 31 c-14 18 -54 77
-88 133 -35 55 -67 101 -71 101 -5 0 21 -47 56 -103z"/>
<path d="M1055 2871 c-19 -38 -6 -75 23 -63 16 6 16 7 0 10 -24 5 -23 18 3 25
15 4 20 12 17 28 -5 34 -25 34 -43 0z m35 0 c0 -12 -20 -25 -27 -18 -7 7 6 27
18 27 5 0 9 -4 9 -9z"/>
<path d="M980 2843 c0 -10 -10 -29 -21 -43 -20 -24 -21 -24 -16 -2 3 12 2 22
-1 22 -9 0 -33 -52 -27 -58 3 -3 5 0 5 6 0 6 7 9 16 5 9 -3 20 0 24 7 12 19
35 -2 61 -53 11 -21 23 -37 25 -34 3 3 -4 23 -15 45 -17 34 -18 41 -6 46 21 8
19 32 -5 56 -25 25 -40 26 -40 3z m40 -18 c10 -12 10 -19 2 -27 -14 -14 -17
-11 -26 20 -8 25 5 29 24 7z"/>
<path d="M770 2809 c-16 -23 -27 -45 -24 -50 3 -5 23 -9 45 -9 21 0 39 -4 39
-8 0 -12 -30 -36 -64 -50 -16 -7 -26 -15 -23 -18 10 -10 76 25 92 50 23 35 11
49 -36 41 -21 -4 -39 -3 -39 2 0 12 31 55 50 70 10 8 11 12 3 13 -7 0 -26 -19
-43 -41z"/>
<path d="M861 2800 c-1 -24 11 -60 19 -60 11 0 34 59 27 67 -4 3 -11 -5 -16
-18 l-9 -24 -10 25 c-6 14 -11 18 -11 10z"/>
<path d="M1740 2739 c0 -5 5 -7 10 -4 6 3 10 8 10 11 0 2 -4 4 -10 4 -5 0 -10
-5 -10 -11z"/>
<path d="M1476 2690 c-5 -27 -8 -30 -25 -20 -31 16 -38 11 -12 -9 22 -16 23
-22 14 -43 -7 -12 -12 -18 -12 -11 -1 7 -12 1 -26 -12 -31 -32 -50 -33 -34 -4
16 31 -7 52 -27 25 -18 -26 -18 -45 1 -52 18 -7 75 14 75 28 0 5 4 7 10 3 5
-3 16 8 24 24 9 17 23 28 33 27 22 -1 30 38 13 60 -18 21 -27 17 -34 -16z m34
-17 c0 -7 -6 -13 -14 -13 -9 0 -12 8 -8 26 3 19 7 22 13 12 5 -7 9 -19 9 -25z
m-149 -86 c-10 -9 -11 -8 -5 6 3 10 9 15 12 12 3 -3 0 -11 -7 -18z"/>
<path d="M1540 2709 c0 -20 20 -39 42 -39 16 0 23 11 19 33 -3 19 18 4 28 -22
11 -24 9 -33 -8 -62 -23 -37 -27 -75 -11 -99 18 -27 50 24 50 79 0 75 -53 156
-67 102 -7 -27 -18 -27 -37 1 -11 16 -16 18 -16 7z m100 -159 c-6 -11 -15 -18
-21 -15 -15 10 -11 48 9 75 l17 25 3 -32 c2 -18 -2 -41 -8 -53z"/>
<path d="M1285 2580 c-8 -25 3 -43 21 -36 8 3 14 -1 14 -9 0 -8 -4 -15 -9 -15
-5 0 -12 -8 -15 -17 -6 -14 -3 -14 15 4 21 20 21 61 0 48 -16 -9 -24 15 -11
30 8 10 9 15 2 15 -6 0 -13 -9 -17 -20z"/>
<path d="M810 2536 c0 -5 20 -47 45 -93 25 -46 43 -88 40 -93 -9 -14 -25 -12
-25 3 0 15 -110 186 -110 171 0 -5 14 -32 32 -60 18 -27 49 -80 70 -119 21
-38 36 -58 32 -43 -10 46 5 53 37 16 24 -27 21 -19 -15 42 -24 41 -58 100 -75
130 -17 30 -31 51 -31 46z"/>
<path d="M1126 2448 c6 -69 -1 -83 -26 -53 -17 20 -32 8 -24 -18 6 -21 6 -21
-13 -4 -27 23 -40 22 -18 -3 21 -24 45 -26 45 -5 0 12 4 13 19 5 11 -5 22 -10
24 -10 13 0 14 51 2 100 l-14 55 5 -67z"/>
<path d="M998 2354 c12 -8 22 -19 22 -25 0 -13 -44 -11 -60 4 -12 10 -12 9 -1
-5 18 -24 71 -24 71 0 0 22 -19 42 -39 42 -11 0 -9 -5 7 -16z"/>
<path d="M1256 2310 c17 -94 108 -209 183 -230 50 -14 135 -12 203 4 l57 13
-24 -29 c-14 -16 -25 -35 -25 -41 0 -6 8 -1 17 13 9 13 32 37 50 53 46 41 43
57 -11 57 -24 0 -53 3 -63 6 -14 4 -13 1 6 -15 24 -22 47 -29 36 -11 -4 6 7
10 24 10 17 0 31 -5 31 -11 0 -6 -7 -8 -16 -5 -9 4 -24 0 -33 -8 -18 -16 -114
-36 -170 -36 -113 0 -196 69 -248 204 -16 41 -21 50 -17 26z"/>
<path d="M4265 498 c-33 -22 -88 -67 -122 -99 -34 -33 -67 -59 -73 -59 -19 0
-210 -92 -210 -101 0 -4 9 -10 19 -14 28 -8 34 -34 15 -63 -12 -18 -13 -23 -2
-20 7 3 17 17 22 31 8 21 6 31 -9 47 -10 11 -16 22 -14 25 6 5 177 85 184 85
2 0 -13 -28 -35 -62 -22 -35 -40 -74 -39 -88 0 -21 3 -19 14 13 8 20 31 62 52
92 30 44 55 64 121 102 84 47 172 119 172 141 0 22 -35 11 -95 -30z m60 2
c-16 -18 -118 -89 -165 -115 -38 -21 52 62 109 101 66 44 89 50 56 14z"/>
<path d="M4081 238 c-1 -16 4 -28 9 -28 12 0 12 8 0 35 -8 18 -9 17 -9 -7z"/>
</g>
</svg>
